<svg xmlns="http://www.w3.org/2000/svg" viewBox="0 0 1200 630">
  <rect width="1200" height="630" fill="#1a1a1a"/>
  <rect x="0" y="0" width="1200" height="630" fill="#f8f7f4"/>

  <!-- Left accent bar -->
  <rect x="0" y="0" width="8" height="630" fill="#1a1a1a"/>

  <!-- Logo mark -->
  <rect x="80" y="220" width="72" height="72" rx="16" fill="#1a1a1a"/>
  <circle cx="116" cy="256" r="10" fill="none" stroke="#fff" stroke-width="5"/>
  <line x1="116" y1="230" x2="116" y2="242" stroke="#fff" stroke-width="4" stroke-linecap="round"/>
  <line x1="116" y1="270" x2="116" y2="282" stroke="#fff" stroke-width="4" stroke-linecap="round"/>
  <line x1="90" y1="256" x2="102" y2="256" stroke="#fff" stroke-width="4" stroke-linecap="round"/>
  <line x1="130" y1="256" x2="142" y2="256" stroke="#fff" stroke-width="4" stroke-linecap="round"/>

  <!-- Heading -->
  <text x="176" y="268" font-family="system-ui,-apple-system,sans-serif" font-size="44" font-weight="700" fill="#1a1a1a" letter-spacing="-1">AI Ollama</text>

  <!-- Tagline -->
  <text x="80" y="340" font-family="system-ui,-apple-system,sans-serif" font-size="28" fill="#6b6860">Run local LLMs on Windows — private, offline, free</text>

  <!-- Badge pills -->
  <rect x="80" y="380" width="180" height="40" rx="20" fill="#f0ede8" stroke="#e4e2dd" stroke-width="1"/>
  <text x="170" y="406" font-family="system-ui,-apple-system,sans-serif" font-size="16" fill="#6b6860" text-anchor="middle">Windows 10 / 11</text>

  <rect x="276" y="380" width="140" height="40" rx="20" fill="#f0ede8" stroke="#e4e2dd" stroke-width="1"/>
  <text x="346" y="406" font-family="system-ui,-apple-system,sans-serif" font-size="16" fill="#6b6860" text-anchor="middle">100% offline</text>

  <rect x="432" y="380" width="120" height="40" rx="20" fill="#f0ede8" stroke="#e4e2dd" stroke-width="1"/>
  <text x="492" y="406" font-family="system-ui,-apple-system,sans-serif" font-size="16" fill="#6b6860" text-anchor="middle">Free</text>

  <!-- URL -->
  <text x="80" y="560" font-family="ui-monospace,monospace" font-size="18" fill="#9c9890">ai-ollama.github.io</text>
</svg>